<?xml version="1.0" encoding="UTF-8" standalone="no"?>
<!-- Created with Inkscape (http://www.inkscape.org/) -->

<svg
   width="210mm"
   height="297mm"
   viewBox="0 0 210 297"
   version="1.1"
   id="svg5"
   inkscape:version="1.1.1 (3bf5ae0d25, 2021-09-20, custom)"
   sodipodi:docname="cover.svg"
   xmlns:inkscape="http://www.inkscape.org/namespaces/inkscape"
   xmlns:sodipodi="http://sodipodi.sourceforge.net/DTD/sodipodi-0.dtd"
   xmlns="http://www.w3.org/2000/svg"
   xmlns:svg="http://www.w3.org/2000/svg">
  <sodipodi:namedview
     id="namedview7"
     pagecolor="#ffffff"
     bordercolor="#666666"
     borderopacity="1.0"
     inkscape:pageshadow="2"
     inkscape:pageopacity="0.0"
     inkscape:pagecheckerboard="0"
     inkscape:document-units="mm"
     showgrid="false"
     inkscape:zoom="0.56123737"
     inkscape:cx="397.33633"
     inkscape:cy="560.36895"
     inkscape:window-width="3813"
     inkscape:window-height="2104"
     inkscape:window-x="1467"
     inkscape:window-y="27"
     inkscape:window-maximized="1"
     inkscape:current-layer="layer1" />
  <defs
     id="defs2">
    <clipPath
       clipPathUnits="userSpaceOnUse"
       id="clipPath912">
      <path
         d="M 0,0 H 595.27557 V 841.88977 H 0 Z"
         id="path910" />
    </clipPath>
    <clipPath
       clipPathUnits="userSpaceOnUse"
       id="clipPath930">
      <path
         d="M 0,0 H 594.051 V 841.891 H 0 Z"
         id="path928" />
    </clipPath>
    <clipPath
       clipPathUnits="userSpaceOnUse"
       id="clipPath938">
      <path
         d="M 0,0 H 596 V 842 H 0 Z"
         id="path936" />
    </clipPath>
  </defs>
  <g
     inkscape:label="Layer 1"
     inkscape:groupmode="layer"
     id="layer1">
    <path
       d="M -0.00549962,-0.00764447 H 210.0055 V 297.00764 H -0.00549962 Z"
       style="fill:#803300;fill-opacity:1;fill-rule:nonzero;stroke:none;stroke-width:0.352795"
       id="path918" />
    <g
       id="g924"
       transform="matrix(0.35279542,0,0,0.35279542,-0.00549962,-0.00764447)">
      <g
         id="g926"
         clip-path="url(#clipPath930)">
        <g
           id="g932">
          <g
             id="g934" />
          <g
             id="g946">
            <g
               clip-path="url(#clipPath938)"
               id="g944">
              <g
                 id="g942">
                <path
                   d="m 28.828,393.23 c -36.805,36.805 -36.805,96.067 0,132.872 l 504.223,504.222 c 36.804,36.805 96.066,36.805 132.871,0 l 504.223,-504.222 c 36.804,-36.805 36.804,-96.067 0,-132.872 L 665.922,-110.992 c -36.805,-36.805 -96.067,-36.805 -132.871,0 z m 141.715,7.293 c 5.16,-5.093 11.031,-9.546 17.523,-13.187 14.387,11.059 32.02,17.062 50.164,17.086 3.864,-0.035 7.719,-0.336 11.54,-0.91 10.14,-23.246 33.238,-67.746 46.003,-69.559 138.016,5.109 191.817,75.262 262.465,125.711 C 487.59,510.117 433.793,580.27 295.773,585.379 283.012,583.566 259.91,539.066 249.77,515.82 c -3.821,-0.574 -7.676,-0.879 -11.54,-0.91 -18.144,0.02 -35.777,6.028 -50.164,17.086 -25.961,-14.574 -42.046,-42.012 -42.089,-72.332 0.031,-22.738 9.089,-43.852 24.566,-59.141 z m 369.801,-369.8 c 15.289,-15.477 36.402,-24.535 59.14,-24.567 30.321,0.043 57.758,16.129 72.332,42.09 -11.058,14.387 -17.066,32.02 -17.086,50.164 0.036,3.863 0.336,7.719 0.911,11.539 23.246,10.141 67.746,33.242 69.558,46.004 C 720.09,293.973 649.938,347.77 599.484,418.418 549.035,347.77 478.883,293.969 473.773,155.953 c 1.813,-12.765 46.313,-35.863 69.559,-46.004 0.574,-3.82 0.875,-7.676 0.91,-11.539 -0.023,-18.144 -6.027,-35.777 -17.086,-50.164 3.641,-6.492 8.094,-12.363 13.188,-17.523 z m 59.144,470.191 c 50.453,70.648 120.602,124.449 125.711,262.465 -1.812,12.766 -46.312,35.867 -69.558,46.004 -0.571,3.82 -0.879,7.676 -0.911,11.535 0.02,18.148 6.028,35.781 17.086,50.168 -14.574,25.961 -42.011,42.047 -72.328,42.09 -30.32,-0.039 -57.758,-16.129 -72.332,-42.09 11.059,-14.387 17.067,-32.02 17.086,-50.164 -0.031,-3.863 -0.336,-7.719 -0.91,-11.539 -23.246,-10.137 -67.746,-33.242 -69.559,-46.004 5.11,-138.02 75.262,-191.817 125.715,-262.465 z m 41.246,-41.246 c 70.649,-50.453 124.446,-120.606 262.465,-125.715 12.762,1.813 35.867,46.313 46.004,69.559 3.82,0.574 7.676,0.879 11.539,0.91 18.145,-0.02 35.778,-6.027 50.164,-17.086 25.961,14.574 42.051,42.012 42.09,72.332 -0.039,30.316 -16.129,57.754 -42.09,72.328 -14.386,-11.058 -32.019,-17.066 -50.168,-17.086 -3.859,0.031 -7.715,0.336 -11.535,0.91 -10.137,23.246 -33.238,67.746 -46.004,69.559 C 765.184,580.27 711.383,510.121 640.734,459.668 Z"
                   style="fill:#ffffff;fill-opacity:0.196078;fill-rule:nonzero;stroke:none"
                   id="path940" />
              </g>
            </g>
          </g>
        </g>
        <path
           d="m 150.355,59 h 1.844 c 2.637,0 4.621,-0.523 5.953,-1.57 1.348,-1.047 2.024,-2.75 2.024,-5.106 0,-2.195 -0.606,-3.816 -1.813,-4.863 -1.187,-1.047 -3.062,-1.57 -5.621,-1.57 h -2.387 z m 19.305,-7.008 c 0,1.934 -0.293,3.785 -0.875,5.559 -0.586,1.773 -1.551,3.332 -2.902,4.683 -1.328,1.348 -3.09,2.426 -5.285,3.231 -2.176,0.805 -4.875,1.207 -8.098,1.207 h -2.145 v 15.711 h -9.363 V 38.215 h 12.266 c 2.84,0 5.285,0.324 7.34,0.969 2.074,0.621 3.777,1.527 5.105,2.718 1.352,1.168 2.348,2.606 2.992,4.321 0.645,1.691 0.965,3.613 0.965,5.769 z"
           style="fill:#ffffff;fill-opacity:1;fill-rule:nonzero;stroke:none"
           id="path948" />
        <path
           d="m 176.852,39.875 c 0,-0.863 0.128,-1.578 0.39,-2.145 0.262,-0.582 0.617,-1.046 1.059,-1.386 0.465,-0.364 0.996,-0.617 1.601,-0.758 0.625,-0.141 1.278,-0.211 1.965,-0.211 0.684,0 1.328,0.07 1.934,0.211 0.601,0.141 1.125,0.394 1.57,0.758 0.461,0.34 0.824,0.804 1.086,1.386 0.281,0.567 0.422,1.282 0.422,2.145 0,0.848 -0.141,1.563 -0.422,2.148 -0.262,0.582 -0.625,1.055 -1.086,1.418 -0.445,0.344 -0.969,0.594 -1.57,0.754 -0.606,0.145 -1.25,0.215 -1.934,0.215 -0.687,0 -1.34,-0.07 -1.965,-0.215 -0.605,-0.16 -1.136,-0.41 -1.601,-0.754 -0.442,-0.363 -0.797,-0.836 -1.059,-1.418 -0.262,-0.585 -0.39,-1.3 -0.39,-2.148 z m 9.605,42.508 h -9.215 V 48.609 h 9.215 z"
           style="fill:#ffffff;fill-opacity:1;fill-rule:nonzero;stroke:none"
           id="path950" />
        <path
           d="m 225.398,82.383 h -9.214 V 62.656 c 0,-2.437 -0.372,-4.261 -1.118,-5.468 -0.722,-1.231 -1.894,-1.844 -3.504,-1.844 -1.207,0 -2.214,0.242 -3.019,0.726 -0.809,0.485 -1.453,1.2 -1.934,2.145 -0.464,0.945 -0.797,2.113 -1,3.504 -0.199,1.39 -0.3,2.98 -0.3,4.773 v 15.891 h -9.215 V 48.609 h 7.039 l 1.238,4.321 h 0.516 c 0.484,-0.868 1.066,-1.614 1.75,-2.239 0.707,-0.625 1.472,-1.136 2.297,-1.539 0.828,-0.402 1.703,-0.695 2.628,-0.875 0.926,-0.203 1.876,-0.304 2.84,-0.304 1.653,0 3.153,0.242 4.5,0.726 1.352,0.461 2.508,1.199 3.477,2.203 0.965,1.008 1.711,2.297 2.234,3.868 0.524,1.55 0.785,3.414 0.785,5.589 z"
           style="fill:#ffffff;fill-opacity:1;fill-rule:nonzero;stroke:none"
           id="path952" />
        <path
           d="m 264.188,82.383 h -9.211 V 62.656 c 0,-2.437 -0.383,-4.261 -1.149,-5.468 -0.746,-1.231 -1.906,-1.844 -3.476,-1.844 -1.188,0 -2.184,0.242 -2.989,0.726 -0.808,0.485 -1.453,1.2 -1.933,2.145 -0.485,0.945 -0.828,2.113 -1.028,3.504 -0.203,1.39 -0.304,2.98 -0.304,4.773 v 15.891 h -9.211 V 35.375 h 9.211 v 9.578 c 0,0.844 -0.02,1.742 -0.059,2.688 -0.039,0.925 -0.09,1.781 -0.152,2.566 -0.078,0.93 -0.149,1.836 -0.211,2.723 h 0.484 c 0.985,-1.754 2.246,-3.012 3.778,-3.778 1.527,-0.785 3.261,-1.179 5.195,-1.179 1.672,0 3.179,0.242 4.531,0.726 1.367,0.461 2.535,1.199 3.504,2.203 0.965,1.008 1.711,2.297 2.234,3.868 0.524,1.55 0.786,3.414 0.786,5.589 z"
           style="fill:#ffffff;fill-opacity:1;fill-rule:nonzero;stroke:none"
           id="path954" />
        <path
           d="M 293.281,82.383 291.5,77.789 h -0.273 c -0.665,0.906 -1.329,1.695 -1.993,2.359 -0.664,0.645 -1.39,1.176 -2.175,1.602 -0.786,0.422 -1.672,0.734 -2.661,0.934 -0.964,0.203 -2.093,0.304 -3.382,0.304 -1.368,0 -2.637,-0.211 -3.805,-0.636 -1.168,-0.442 -2.188,-1.098 -3.051,-1.961 -0.848,-0.887 -1.512,-1.996 -1.996,-3.325 -0.484,-1.351 -0.726,-2.941 -0.726,-4.773 0,-3.586 1.148,-6.223 3.445,-7.914 2.297,-1.715 5.73,-2.66 10.301,-2.84 l 5.378,-0.184 V 58.82 c 0,-1.39 -0.402,-2.418 -1.207,-3.082 -0.808,-0.664 -1.933,-0.996 -3.386,-0.996 -1.449,0 -2.867,0.211 -4.258,0.633 -1.371,0.422 -2.75,0.988 -4.141,1.691 l -2.988,-6.101 c 1.691,-0.949 3.563,-1.692 5.617,-2.235 2.055,-0.546 4.211,-0.816 6.465,-0.816 4.211,0 7.434,0.984 9.668,2.961 2.258,1.973 3.383,4.973 3.383,9 v 22.508 z m -2.719,-15.649 -3.05,0.121 c -1.231,0.04 -2.266,0.2 -3.114,0.485 -0.843,0.281 -1.531,0.664 -2.054,1.144 -0.504,0.465 -0.875,1.028 -1.117,1.696 -0.219,0.644 -0.332,1.367 -0.332,2.172 0,1.41 0.343,2.418 1.027,3.023 0.683,0.582 1.582,0.875 2.687,0.875 0.848,0 1.633,-0.141 2.36,-0.422 0.722,-0.305 1.347,-0.734 1.871,-1.301 0.543,-0.582 0.969,-1.289 1.269,-2.113 0.301,-0.848 0.453,-1.812 0.453,-2.902 z"
           style="fill:#ffffff;fill-opacity:1;fill-rule:nonzero;stroke:none"
           id="path956" />
        <path
           d="m 344.758,45.375 c -1.789,0 -3.383,0.352 -4.77,1.059 -1.371,0.683 -2.531,1.679 -3.476,2.988 -0.926,1.289 -1.629,2.871 -2.114,4.746 -0.484,1.852 -0.726,3.937 -0.726,6.254 0,2.355 0.211,4.449 0.637,6.281 0.441,1.832 1.105,3.383 1.992,4.652 0.906,1.25 2.054,2.207 3.445,2.872 1.41,0.644 3.082,0.964 5.012,0.964 1.793,0 3.586,-0.199 5.379,-0.601 1.812,-0.402 3.777,-0.977 5.89,-1.723 v 7.856 c -0.965,0.402 -1.922,0.742 -2.871,1.027 -0.945,0.281 -1.91,0.512 -2.898,0.691 -0.988,0.184 -2.004,0.313 -3.051,0.395 -1.027,0.102 -2.137,0.152 -3.324,0.152 -3.403,0 -6.352,-0.547 -8.852,-1.633 -2.496,-1.085 -4.562,-2.617 -6.191,-4.593 -1.633,-1.973 -2.84,-4.348 -3.625,-7.129 -0.785,-2.778 -1.18,-5.871 -1.18,-9.274 0,-3.343 0.453,-6.406 1.36,-9.183 0.906,-2.801 2.234,-5.207 3.988,-7.219 1.754,-2.016 3.918,-3.578 6.496,-4.684 2.578,-1.128 5.539,-1.691 8.879,-1.691 2.195,0 4.39,0.281 6.586,0.844 2.218,0.543 4.332,1.301 6.347,2.265 l -3.023,7.614 c -1.652,-0.785 -3.313,-1.469 -4.984,-2.055 -1.672,-0.582 -3.313,-0.875 -4.926,-0.875 z"
           style="fill:#ffffff;fill-opacity:1;fill-rule:nonzero;stroke:none"
           id="path958" />
        <path
           d="m 386.75,82.383 -1.238,-4.321 h -0.481 c -0.504,0.868 -1.109,1.614 -1.812,2.235 -0.688,0.605 -1.442,1.109 -2.266,1.512 -0.828,0.402 -1.703,0.695 -2.629,0.875 -0.926,0.203 -1.875,0.304 -2.84,0.304 -1.652,0 -3.152,-0.234 -4.504,-0.695 -1.347,-0.484 -2.503,-1.231 -3.472,-2.238 -0.965,-1.004 -1.711,-2.285 -2.235,-3.836 -0.523,-1.551 -0.785,-3.414 -0.785,-5.586 V 48.609 h 9.211 v 19.727 c 0,2.437 0.363,4.269 1.09,5.496 0.746,1.211 1.922,1.813 3.535,1.813 1.207,0 2.215,-0.243 3.02,-0.723 0.804,-0.484 1.441,-1.199 1.902,-2.145 0.484,-0.949 0.828,-2.117 1.027,-3.504 0.204,-1.39 0.305,-2.984 0.305,-4.773 V 48.609 h 9.211 v 33.774 z"
           style="fill:#ffffff;fill-opacity:1;fill-rule:nonzero;stroke:none"
           id="path960" />
        <path
           d="m 403.457,35.375 h 9.215 v 47.008 h -9.215 z"
           style="fill:#ffffff;fill-opacity:1;fill-rule:nonzero;stroke:none"
           id="path962" />
        <path
           d="m 436.023,75.645 c 0.907,0 1.766,-0.098 2.571,-0.301 0.824,-0.203 1.66,-0.453 2.508,-0.754 v 6.855 c -0.868,0.446 -1.946,0.805 -3.235,1.09 -1.269,0.301 -2.656,0.453 -4.168,0.453 -1.472,0 -2.84,-0.172 -4.109,-0.515 -1.27,-0.34 -2.367,-0.938 -3.293,-1.782 -0.926,-0.867 -1.66,-2.015 -2.203,-3.445 -0.528,-1.449 -0.789,-3.262 -0.789,-5.437 V 55.527 h -4.41 v -3.898 l 5.078,-3.082 2.656,-7.129 h 5.891 v 7.191 h 8.218 v 6.918 h -8.218 v 16.282 c 0,1.308 0.324,2.277 0.968,2.902 0.645,0.621 1.489,0.934 2.535,0.934 z"
           style="fill:#ffffff;fill-opacity:1;fill-rule:nonzero;stroke:none"
           id="path964" />
        <path
           d="m 470.012,82.383 -1.239,-4.321 h -0.484 c -0.504,0.868 -1.105,1.614 -1.812,2.235 -0.684,0.605 -1.442,1.109 -2.266,1.512 -0.824,0.402 -1.703,0.695 -2.629,0.875 -0.926,0.203 -1.871,0.304 -2.84,0.304 -1.652,0 -3.152,-0.234 -4.5,-0.695 -1.351,-0.484 -2.508,-1.231 -3.476,-2.238 -0.965,-1.004 -1.711,-2.285 -2.235,-3.836 -0.523,-1.551 -0.785,-3.414 -0.785,-5.586 V 48.609 h 9.215 v 19.727 c 0,2.437 0.363,4.269 1.086,5.496 0.746,1.211 1.926,1.813 3.535,1.813 1.211,0 2.215,-0.243 3.023,-0.723 0.805,-0.484 1.438,-1.199 1.903,-2.145 0.484,-0.949 0.824,-2.117 1.027,-3.504 0.199,-1.39 0.301,-2.984 0.301,-4.773 V 48.609 h 9.215 v 33.774 z"
           style="fill:#ffffff;fill-opacity:1;fill-rule:nonzero;stroke:none"
           id="path966" />
        <path
           d="m 504.332,47.973 c 0.238,0 0.5,0.011 0.785,0.031 0.301,0 0.582,0.019 0.844,0.058 0.281,0.024 0.535,0.051 0.758,0.094 0.238,0.02 0.422,0.047 0.543,0.09 v 8.641 c -0.164,-0.043 -0.383,-0.082 -0.664,-0.121 -0.286,-0.043 -0.586,-0.071 -0.907,-0.09 -0.304,-0.043 -0.605,-0.063 -0.906,-0.063 -0.305,-0.019 -0.555,-0.031 -0.758,-0.031 -1.187,0 -2.285,0.152 -3.293,0.453 -0.984,0.305 -1.843,0.797 -2.566,1.481 -0.707,0.664 -1.258,1.55 -1.664,2.66 -0.379,1.086 -0.57,2.426 -0.57,4.015 v 17.192 h -9.215 V 48.609 h 6.976 l 1.36,5.075 h 0.453 c 0.484,-0.868 1.008,-1.653 1.57,-2.356 0.567,-0.707 1.192,-1.301 1.875,-1.785 0.703,-0.504 1.488,-0.887 2.356,-1.148 0.886,-0.282 1.894,-0.422 3.023,-0.422 z"
           style="fill:#ffffff;fill-opacity:1;fill-rule:nonzero;stroke:none"
           id="path968" />
        <path
           d="m 532.547,82.383 -1.781,-4.594 h -0.274 c -0.664,0.906 -1.328,1.695 -1.992,2.359 -0.668,0.645 -1.391,1.176 -2.176,1.602 -0.785,0.422 -1.672,0.734 -2.66,0.934 -0.965,0.203 -2.094,0.304 -3.383,0.304 -1.371,0 -2.636,-0.211 -3.804,-0.636 -1.168,-0.442 -2.188,-1.098 -3.055,-1.961 -0.844,-0.887 -1.508,-1.996 -1.992,-3.325 -0.485,-1.351 -0.727,-2.941 -0.727,-4.773 0,-3.586 1.149,-6.223 3.445,-7.914 2.297,-1.715 5.731,-2.66 10.301,-2.84 l 5.379,-0.184 V 58.82 c 0,-1.39 -0.402,-2.418 -1.207,-3.082 -0.809,-0.664 -1.933,-0.996 -3.387,-0.996 -1.449,0 -2.867,0.211 -4.257,0.633 -1.372,0.422 -2.75,0.988 -4.141,1.691 l -2.988,-6.101 c 1.691,-0.949 3.562,-1.692 5.617,-2.235 2.055,-0.546 4.211,-0.816 6.465,-0.816 4.211,0 7.433,0.984 9.668,2.961 2.257,1.973 3.382,4.973 3.382,9 v 22.508 z m -2.719,-15.649 -3.051,0.121 c -1.23,0.04 -2.265,0.2 -3.113,0.485 -0.844,0.281 -1.531,0.664 -2.055,1.144 -0.504,0.465 -0.875,1.028 -1.117,1.696 -0.222,0.644 -0.332,1.367 -0.332,2.172 0,1.41 0.344,2.418 1.028,3.023 0.683,0.582 1.582,0.875 2.687,0.875 0.848,0 1.633,-0.141 2.359,-0.422 0.723,-0.305 1.348,-0.734 1.871,-1.301 0.543,-0.582 0.969,-1.289 1.27,-2.113 0.301,-0.848 0.453,-1.812 0.453,-2.902 z"
           style="fill:#ffffff;fill-opacity:1;fill-rule:nonzero;stroke:none"
           id="path970" />
        <path
           d="m 548.469,35.375 h 9.211 v 47.008 h -9.211 z"
           style="fill:#ffffff;fill-opacity:1;fill-rule:nonzero;stroke:none"
           id="path972" />
        <path
           d="m 45.422,22.863 h 59.414 c 4.336,0 7.828,3.492 7.828,7.828 v 59.414 c 0,4.336 -3.492,7.829 -7.828,7.829 H 45.422 c -4.336,0 -7.828,-3.493 -7.828,-7.829 V 30.691 c 0,-4.336 3.492,-7.828 7.828,-7.828 z"
           style="fill:#ffffff;fill-opacity:1;fill-rule:nonzero;stroke:none"
           id="path974" />
        <path
           d="m 64.641,35.102 c -0.86,-0.649 -4.84,0.613 -6.809,1.386 -0.258,-0.191 -0.504,-0.402 -0.73,-0.625 -1.071,-1.07 -1.754,-2.465 -1.95,-3.965 -2.39,-0.668 -4.953,0 -6.742,1.782 -1.785,1.789 -2.453,4.355 -1.781,6.742 1.5,0.195 2.891,0.883 3.961,1.949 0.226,0.231 0.433,0.473 0.625,0.734 -0.77,1.965 -2.031,5.95 -1.387,6.809 8.434,7.828 15.734,6.867 22.871,8.055 -1.191,-7.133 -0.226,-14.438 -8.058,-22.867 z"
           style="fill:#803300;fill-opacity:1;fill-rule:nonzero;stroke:none"
           id="path976" />
        <path
           d="m 85.617,35.102 c 0.856,-0.649 4.84,0.613 6.809,1.386 0.258,-0.191 0.504,-0.402 0.73,-0.625 1.071,-1.07 1.754,-2.465 1.949,-3.965 2.391,-0.668 4.954,0 6.743,1.782 1.785,1.789 2.453,4.355 1.781,6.742 -1.5,0.195 -2.891,0.883 -3.961,1.949 -0.227,0.231 -0.438,0.473 -0.629,0.734 0.773,1.965 2.035,5.95 1.391,6.809 -8.434,7.828 -15.739,6.867 -22.871,8.055 1.191,-7.133 0.226,-14.438 8.058,-22.867 z"
           style="fill:#803300;fill-opacity:1;fill-rule:nonzero;stroke:none"
           id="path978" />
        <path
           d="m 85.617,85.699 c 0.856,0.645 4.84,-0.617 6.809,-1.387 0.258,0.192 0.504,0.399 0.73,0.626 1.071,1.07 1.754,2.464 1.949,3.96 2.391,0.672 4.954,0.004 6.743,-1.781 1.785,-1.789 2.453,-4.351 1.781,-6.738 -1.5,-0.199 -2.891,-0.883 -3.961,-1.949 -0.227,-0.231 -0.438,-0.477 -0.629,-0.735 0.773,-1.968 2.035,-5.949 1.391,-6.808 -8.434,-7.832 -15.739,-6.867 -22.871,-8.059 1.191,7.137 0.226,14.438 8.058,22.871 z"
           style="fill:#803300;fill-opacity:1;fill-rule:nonzero;stroke:none"
           id="path980" />
        <path
           d="m 64.641,85.699 c -0.86,0.645 -4.84,-0.617 -6.809,-1.387 -0.258,0.192 -0.504,0.399 -0.73,0.626 -1.071,1.07 -1.754,2.464 -1.95,3.96 -2.39,0.672 -4.953,0.004 -6.742,-1.781 -1.785,-1.789 -2.453,-4.351 -1.781,-6.738 1.5,-0.199 2.891,-0.883 3.961,-1.949 0.226,-0.231 0.433,-0.477 0.625,-0.735 -0.77,-1.968 -2.031,-5.949 -1.387,-6.808 8.434,-7.832 15.734,-6.867 22.871,-8.059 -1.191,7.137 -0.226,14.438 -8.058,22.871 z"
           style="fill:#803300;fill-opacity:1;fill-rule:nonzero;stroke:none"
           id="path982" />
      </g>
    </g>
  </g>
</svg>
