<?xml version="1.0" encoding="UTF-8" standalone="no"?>
<!-- Created with Inkscape (http://www.inkscape.org/) -->

<svg
   xmlns:dc="http://purl.org/dc/elements/1.1/"
   xmlns:cc="http://creativecommons.org/ns#"
   xmlns:rdf="http://www.w3.org/1999/02/22-rdf-syntax-ns#"
   xmlns:svg="http://www.w3.org/2000/svg"
   xmlns="http://www.w3.org/2000/svg"
   xmlns:sodipodi="http://sodipodi.sourceforge.net/DTD/sodipodi-0.dtd"
   xmlns:inkscape="http://www.inkscape.org/namespaces/inkscape"
   width="170mm"
   height="120mm"
   viewBox="0 0 170 120"
   version="1.1"
   id="svg185"
   inkscape:version="0.92.2 5c3e80d, 2017-08-06"
   sodipodi:docname="pinha_cultural-logo_vertical.svg">
  <defs
     id="defs179" />
  <sodipodi:namedview
     id="base"
     pagecolor="#ffffff"
     bordercolor="#666666"
     borderopacity="1.0"
     inkscape:pageopacity="0.0"
     inkscape:pageshadow="2"
     inkscape:zoom="0.75275676"
     inkscape:cx="319.93139"
     inkscape:cy="321.25984"
     inkscape:document-units="mm"
     inkscape:current-layer="layer1"
     inkscape:document-rotation="0"
     showgrid="false"
     inkscape:window-width="1440"
     inkscape:window-height="871"
     inkscape:window-x="1440"
     inkscape:window-y="0"
     inkscape:window-maximized="1"
     units="mm" />
  <metadata
     id="metadata182">
    <rdf:RDF>
      <cc:Work
         rdf:about="">
        <dc:format>image/svg+xml</dc:format>
        <dc:type
           rdf:resource="http://purl.org/dc/dcmitype/StillImage" />
        <dc:title></dc:title>
      </cc:Work>
    </rdf:RDF>
  </metadata>
  <g
     inkscape:label="Layer 1"
     inkscape:groupmode="layer"
     id="layer1"
     transform="translate(0,-177.00001)">
    <g
       id="g31"
       transform="matrix(0.58787381,0,0,0.58787631,-2.7992619,125.57907)">
      <g
         aria-label="Pinha Cultural"
         style="font-style:normal;font-weight:normal;font-size:41.67456055px;line-height:1.25;font-family:sans-serif;letter-spacing:0px;word-spacing:0px;fill:#803300;fill-opacity:1;stroke:none;stroke-width:1.04186428"
         id="text4302">
        <path
           d="m 14.471923,267.75123 h 1.241283 q 2.665707,0 4.008735,-1.05815 1.363377,-1.05814 1.363377,-3.43896 0,-2.21803 -1.220935,-3.27617 -1.200585,-1.05815 -3.784896,-1.05815 h -1.607564 z m 13.002951,-4.72095 q 0,1.9535 -0.590118,3.7442 -0.590118,1.7907 -1.953495,3.15408 -1.343028,1.36338 -3.561059,2.17733 -2.197681,0.81396 -5.453507,0.81396 h -1.444772 v 10.58143 H 8.1637621 v -29.7501 h 8.2616559 q 2.869196,0 4.944784,0.65117 2.095938,0.63081 3.438966,1.8314 1.363376,1.18023 2.014541,2.90989 0.651165,1.70931 0.651165,3.88664 z"
           style="font-style:normal;font-variant:normal;font-weight:bold;font-stretch:normal;font-family:'Droid Sans';-inkscape-font-specification:'Droid Sans Bold';fill:#803300;fill-opacity:1;stroke-width:1.04186428"
           id="path1533" />
        <path
           d="m 32.317915,254.87037 q 0,-0.875 0.264536,-1.44477 0.264536,-0.59012 0.712212,-0.93605 0.468024,-0.36628 1.078492,-0.50872 0.630816,-0.14245 1.322679,-0.14245 0.691862,0 1.30233,0.14245 0.610467,0.14244 1.058143,0.50872 0.468025,0.34593 0.73256,0.93605 0.284885,0.56977 0.284885,1.44477 0,0.85465 -0.284885,1.44477 -0.264535,0.59012 -0.73256,0.9564 -0.447676,0.34593 -1.058143,0.50872 -0.610468,0.14245 -1.30233,0.14245 -0.691863,0 -1.322679,-0.14245 -0.610468,-0.16279 -1.078492,-0.50872 -0.447676,-0.36628 -0.712212,-0.9564 -0.264536,-0.59012 -0.264536,-1.44477 z m 6.470952,28.63091 H 32.582451 V 260.7512 h 6.206416 z"
           style="font-style:normal;font-variant:normal;font-weight:bold;font-stretch:normal;font-family:'Droid Sans';-inkscape-font-specification:'Droid Sans Bold';fill:#803300;fill-opacity:1;stroke-width:1.04186428"
           id="path1535" />
        <path
           d="m 65.01861,283.50128 h -6.206417 v -13.28783 q 0,-2.46222 -0.752909,-3.68316 -0.732561,-1.24128 -2.360473,-1.24128 -1.220935,0 -2.034891,0.48837 -0.813956,0.48838 -1.30233,1.44478 -0.468025,0.9564 -0.671514,2.36047 -0.203489,1.40407 -0.203489,3.21513 v 10.70352 H 45.28017 V 260.7512 h 4.741296 l 0.834305,2.9099 h 0.345931 q 0.488374,-0.87501 1.180237,-1.50582 0.712212,-0.63082 1.546517,-1.0378 0.834305,-0.40697 1.770355,-0.59011 0.936049,-0.20349 1.912797,-0.20349 1.66861,0 3.031987,0.48837 1.363377,0.46803 2.340124,1.48547 0.976748,1.01745 1.505819,2.60466 0.529072,1.56687 0.529072,3.76455 z"
           style="font-style:normal;font-variant:normal;font-weight:bold;font-stretch:normal;font-family:'Droid Sans';-inkscape-font-specification:'Droid Sans Bold';fill:#803300;fill-opacity:1;stroke-width:1.04186428"
           id="path1537" />
        <path
           d="m 91.146604,283.50128 h -6.206416 v -13.28783 q 0,-2.46222 -0.773259,-3.68316 -0.752909,-1.24128 -2.340124,-1.24128 -1.200585,0 -2.014542,0.48837 -0.813956,0.48838 -1.30233,1.44478 -0.488373,0.9564 -0.691862,2.36047 -0.20349,1.40407 -0.20349,3.21513 v 10.70352 h -6.206416 v -31.6629 h 6.206416 v 6.45061 q 0,0.85465 -0.0407,1.81105 -0.0407,0.93605 -0.101745,1.72966 -0.0814,0.93605 -0.142442,1.8314 h 0.325582 q 0.997097,-1.77036 2.543614,-2.54362 1.546516,-0.7936 3.500012,-0.7936 1.688959,0 3.052335,0.48837 1.383726,0.46803 2.360474,1.48547 0.976747,1.01745 1.505819,2.60466 0.529071,1.56687 0.529071,3.76455 z"
           style="font-style:normal;font-variant:normal;font-weight:bold;font-stretch:normal;font-family:'Droid Sans';-inkscape-font-specification:'Droid Sans Bold';fill:#803300;fill-opacity:1;stroke-width:1.04186428"
           id="path1539" />
        <path
           d="m 110.7426,283.50128 -1.20059,-3.09303 h -0.18314 q -0.67151,0.9157 -1.34302,1.58721 -0.67152,0.65117 -1.46512,1.07849 -0.79361,0.42733 -1.79071,0.63082 -0.97675,0.20349 -2.27908,0.20349 -1.38372,0 -2.563958,-0.42733 -1.180237,-0.44767 -2.05524,-1.32268 -0.854654,-0.89535 -1.343028,-2.23838 -0.488374,-1.36337 -0.488374,-3.21512 0,-3.62211 2.319776,-5.33142 2.319774,-1.72965 6.938974,-1.91279 l 3.62211,-0.1221 v -1.70931 q 0,-1.40407 -0.81396,-2.07558 -0.81395,-0.67152 -2.27908,-0.67152 -1.46512,0 -2.86919,0.42733 -1.38373,0.42733 -2.7878,1.13954 l -2.014543,-4.11048 q 1.709308,-0.9564 3.784893,-1.50582 2.07559,-0.54942 4.35467,-0.54942 4.25292,0 6.51165,1.99419 2.27908,1.9942 2.27908,6.06398 v 15.15993 z m -1.8314,-10.54073 -2.05524,0.0814 q -1.24128,0.0407 -2.09594,0.32559 -0.85465,0.28488 -1.38372,0.77325 -0.50873,0.46803 -0.75291,1.13954 -0.22384,0.65117 -0.22384,1.46512 0,1.42443 0.69186,2.0349 0.69186,0.59011 1.81105,0.59011 0.85466,0 1.58722,-0.28488 0.73256,-0.30523 1.26163,-0.875 0.54942,-0.59012 0.85465,-1.42443 0.30524,-0.85465 0.30524,-1.95349 z"
           style="font-style:normal;font-variant:normal;font-weight:bold;font-stretch:normal;font-family:'Droid Sans';-inkscape-font-specification:'Droid Sans Bold';fill:#803300;fill-opacity:1;stroke-width:1.04186428"
           id="path1541" />
        <path
           d="m 145.41714,258.57387 q -1.81105,0 -3.21513,0.71221 -1.38372,0.69187 -2.34012,2.01454 -0.93605,1.30233 -1.42443,3.19478 -0.48837,1.8721 -0.48837,4.21223 0,2.38082 0.42733,4.23257 0.44767,1.85175 1.34303,3.13373 0.9157,1.26163 2.31977,1.93315 1.42442,0.65116 3.37792,0.65116 1.81105,0 3.62211,-0.40698 1.8314,-0.40697 3.96803,-1.15988 v 5.29071 q -0.97675,0.40698 -1.93314,0.69186 -0.9564,0.28489 -1.9535,0.46803 -0.9971,0.18314 -2.05524,0.26454 -1.03779,0.10174 -2.23838,0.10174 -3.43896,0 -5.96223,-1.09884 -2.52326,-1.09884 -4.17152,-3.09303 -1.64827,-1.9942 -2.44187,-4.80235 -0.79361,-2.80815 -0.79361,-6.24711 0,-3.37792 0.9157,-6.18607 0.9157,-2.8285 2.68606,-4.86339 1.77035,-2.03489 4.37501,-3.15408 2.60466,-1.13954 5.98258,-1.13954 2.21803,0 4.43606,0.56977 2.23838,0.54942 4.27327,1.52617 l -2.03489,5.12793 q -1.66861,-0.79361 -3.35757,-1.38373 -1.68896,-0.59012 -3.31687,-0.59012 z"
           style="font-style:normal;font-variant:normal;font-weight:bold;font-stretch:normal;font-family:'Droid Sans';-inkscape-font-specification:'Droid Sans Bold';fill:#803300;fill-opacity:1;stroke-width:1.04186428"
           id="path1543" />
        <path
           d="m 173.70211,283.50128 -0.8343,-2.90989 h -0.32559 q -0.50872,0.875 -1.22093,1.50582 -0.69186,0.61046 -1.52617,1.01744 -0.8343,0.40698 -1.77035,0.59012 -0.93605,0.20349 -1.9128,0.20349 -1.66861,0 -3.03199,-0.46802 -1.36337,-0.48838 -2.34012,-1.50582 -0.97675,-1.01745 -1.50582,-2.58432 -0.52907,-1.56686 -0.52907,-3.76454 V 260.7512 h 6.20641 v 13.28784 q 0,2.46222 0.73256,3.7035 0.75291,1.22094 2.38083,1.22094 1.22093,0 2.03489,-0.48838 0.81395,-0.48837 1.28198,-1.44477 0.48837,-0.9564 0.69186,-2.36047 0.20349,-1.40408 0.20349,-3.21513 V 260.7512 h 6.20642 v 22.75008 z"
           style="font-style:normal;font-variant:normal;font-weight:bold;font-stretch:normal;font-family:'Droid Sans';-inkscape-font-specification:'Droid Sans Bold';fill:#803300;fill-opacity:1;stroke-width:1.04186428"
           id="path1545" />
        <path
           d="m 191.16148,283.50128 h -6.20641 v -31.6629 h 6.20641 z"
           style="font-style:normal;font-variant:normal;font-weight:bold;font-stretch:normal;font-family:'Droid Sans';-inkscape-font-specification:'Droid Sans Bold';fill:#803300;fill-opacity:1;stroke-width:1.04186428"
           id="path1547" />
        <path
           d="m 206.89118,278.96348 q 0.9157,0 1.72966,-0.20349 0.8343,-0.20349 1.68895,-0.50873 v 4.61921 q -0.875,0.44767 -2.17733,0.73256 -1.28198,0.30523 -2.80815,0.30523 -1.48547,0 -2.76745,-0.34593 -1.28198,-0.34593 -2.21803,-1.20059 -0.93605,-0.875 -1.48547,-2.31977 -0.52907,-1.46512 -0.52907,-3.66281 V 265.4111 h -2.97094 v -2.62501 l 3.41861,-2.07558 1.79071,-4.80235 h 3.96804 v 4.84304 h 5.5349 v 4.6599 h -5.5349 v 10.96806 q 0,1.32268 0.65116,1.9535 0.65117,0.63082 1.70931,0.63082 z"
           style="font-style:normal;font-variant:normal;font-weight:bold;font-stretch:normal;font-family:'Droid Sans';-inkscape-font-specification:'Droid Sans Bold';fill:#803300;fill-opacity:1;stroke-width:1.04186428"
           id="path1549" />
        <path
           d="m 229.7837,283.50128 -0.83431,-2.90989 h -0.32558 q -0.50872,0.875 -1.22093,1.50582 -0.69186,0.61046 -1.52617,1.01744 -0.83431,0.40698 -1.77035,0.59012 -0.93605,0.20349 -1.9128,0.20349 -1.66861,0 -3.03199,-0.46802 -1.36338,-0.48838 -2.34012,-1.50582 -0.97675,-1.01745 -1.50582,-2.58432 -0.52907,-1.56686 -0.52907,-3.76454 V 260.7512 h 6.20641 v 13.28784 q 0,2.46222 0.73256,3.7035 0.75291,1.22094 2.38083,1.22094 1.22093,0 2.03489,-0.48838 0.81395,-0.48837 1.28198,-1.44477 0.48837,-0.9564 0.69186,-2.36047 0.20349,-1.40408 0.20349,-3.21513 V 260.7512 h 6.20642 v 22.75008 z"
           style="font-style:normal;font-variant:normal;font-weight:bold;font-stretch:normal;font-family:'Droid Sans';-inkscape-font-specification:'Droid Sans Bold';fill:#803300;fill-opacity:1;stroke-width:1.04186428"
           id="path1551" />
        <path
           d="m 252.90007,260.32388 q 0.24418,0 0.52907,0.0204 0.30523,0 0.56977,0.0407 0.28488,0.0203 0.50872,0.061 0.24419,0.0204 0.36628,0.0611 v 5.81978 q -0.16279,-0.0407 -0.44767,-0.0814 -0.28489,-0.0407 -0.61047,-0.061 -0.30523,-0.0407 -0.61047,-0.0407 -0.30523,-0.0203 -0.50872,-0.0203 -1.20059,0 -2.21803,0.30523 -0.9971,0.30523 -1.72966,0.9971 -0.71221,0.67151 -1.11919,1.7907 -0.38663,1.09884 -0.38663,2.7064 v 11.57853 h -6.20641 V 260.7512 h 4.70059 l 0.9157,3.41862 h 0.30524 q 0.48837,-0.875 1.05814,-1.58721 0.56977,-0.71222 1.26163,-1.20059 0.71221,-0.50872 1.58722,-0.77326 0.89535,-0.28488 2.03489,-0.28488 z"
           style="font-style:normal;font-variant:normal;font-weight:bold;font-stretch:normal;font-family:'Droid Sans';-inkscape-font-specification:'Droid Sans Bold';fill:#803300;fill-opacity:1;stroke-width:1.04186428"
           id="path1553" />
        <path
           d="m 271.90594,283.50128 -1.20059,-3.09303 h -0.18314 q -0.67151,0.9157 -1.34303,1.58721 -0.67151,0.65117 -1.46512,1.07849 -0.7936,0.42733 -1.7907,0.63082 -0.97675,0.20349 -2.27908,0.20349 -1.38372,0 -2.56396,-0.42733 -1.18024,-0.44767 -2.05524,-1.32268 -0.85465,-0.89535 -1.34303,-2.23838 -0.48837,-1.36337 -0.48837,-3.21512 0,-3.62211 2.31977,-5.33142 2.31978,-1.72965 6.93898,-1.91279 l 3.62211,-0.1221 v -1.70931 q 0,-1.40407 -0.81396,-2.07558 -0.81396,-0.67152 -2.27908,-0.67152 -1.46512,0 -2.86919,0.42733 -1.38373,0.42733 -2.7878,1.13954 l -2.01455,-4.11048 q 1.70931,-0.9564 3.7849,-1.50582 2.07559,-0.54942 4.35467,-0.54942 4.25292,0 6.51165,1.99419 2.27907,1.9942 2.27907,6.06398 v 15.15993 z m -1.8314,-10.54073 -2.05524,0.0814 q -1.24129,0.0407 -2.09594,0.32559 -0.85466,0.28488 -1.38373,0.77325 -0.50872,0.46803 -0.75291,1.13954 -0.22383,0.65117 -0.22383,1.46512 0,1.42443 0.69186,2.0349 0.69186,0.59011 1.81105,0.59011 0.85466,0 1.58722,-0.28488 0.73256,-0.30523 1.26163,-0.875 0.54942,-0.59012 0.85465,-1.42443 0.30524,-0.85465 0.30524,-1.95349 z"
           style="font-style:normal;font-variant:normal;font-weight:bold;font-stretch:normal;font-family:'Droid Sans';-inkscape-font-specification:'Droid Sans Bold';fill:#803300;fill-opacity:1;stroke-width:1.04186428"
           id="path1555" />
        <path
           d="m 288.83624,283.50128 h -6.20641 v -31.6629 h 6.20641 z"
           style="font-style:normal;font-variant:normal;font-weight:bold;font-stretch:normal;font-family:'Droid Sans';-inkscape-font-specification:'Droid Sans Bold';fill:#803300;fill-opacity:1;stroke-width:1.04186428"
           id="path1557" />
      </g>
      <g
         transform="matrix(5.3138724,0,0,5.3138724,-7.2173717,-72.057168)"
         id="g285">
        <rect
           style="fill:#803300;stroke:none;stroke-width:0.02085175"
           id="rect4433-8"
           width="26.451933"
           height="26.451933"
           x="16.077969"
           y="31.466965"
           rx="2.7583418"
           ry="2.7583418" />
        <path
           style="fill:#ffffff;stroke:none;stroke-width:0.04161351"
           d="m 25.608718,35.778109 c -0.302598,-0.227349 -1.706038,0.216902 -2.399114,0.488994 -0.09119,-0.06741 -0.177522,-0.14113 -0.258374,-0.220635 -0.376297,-0.377136 -0.617683,-0.867867 -0.686744,-1.396129 -0.841521,-0.23636 -1.745107,-7.46e-4 -2.375378,0.627765 -0.628509,0.630272 -0.864125,1.533857 -0.627766,2.375379 0.528263,0.06907 1.018994,0.310447 1.39613,0.686743 0.07951,0.08085 0.153232,0.167189 0.220635,0.258374 -0.272092,0.693076 -0.716344,2.096517 -0.488994,2.399114 2.971345,2.759105 5.544529,2.419681 8.058545,2.838941 -0.419259,-2.514016 -0.07984,-5.0872 -2.83894,-8.058546 z"
           id="path4138-5-2"
           inkscape:connector-curvature="0"
           sodipodi:nodetypes="ccccccccccc" />
        <path
           style="fill:#ffffff;stroke:none;stroke-width:0.04161351"
           d="m 32.999154,35.778109 c 0.302598,-0.227349 1.706038,0.216902 2.399115,0.488994 0.09119,-0.06741 0.177522,-0.14113 0.258373,-0.220635 0.376297,-0.377136 0.617684,-0.867867 0.686744,-1.396129 0.841522,-0.23636 1.745107,-7.46e-4 2.375379,0.627765 0.628509,0.630272 0.864125,1.533857 0.627765,2.375379 -0.528262,0.06907 -1.018993,0.310447 -1.396129,0.686743 -0.07951,0.08085 -0.153232,0.167189 -0.220635,0.258374 0.272092,0.693076 0.716343,2.096517 0.488994,2.399114 -2.971345,2.759105 -5.54453,2.419681 -8.058545,2.838941 0.419259,-2.514016 0.07984,-5.0872 2.838939,-8.058546 z"
           id="path4138-5-2-2"
           inkscape:connector-curvature="0"
           sodipodi:nodetypes="ccccccccccc" />
        <path
           style="fill:#ffffff;stroke:none;stroke-width:0.04161351"
           d="m 32.999153,53.607755 c 0.302598,0.227349 1.706039,-0.216903 2.399116,-0.488994 0.09119,0.06741 0.177521,0.14113 0.258373,0.220635 0.376297,0.377136 0.617683,0.867866 0.686743,1.396129 0.841522,0.23636 1.745108,7.46e-4 2.375379,-0.627765 0.628509,-0.630272 0.864126,-1.533857 0.627765,-2.37538 -0.528262,-0.06905 -1.018993,-0.310446 -1.396129,-0.686743 -0.07951,-0.08085 -0.153231,-0.167188 -0.220635,-0.258373 0.272092,-0.693077 0.716344,-2.096517 0.488994,-2.399115 -2.971345,-2.759104 -5.54453,-2.419681 -8.058545,-2.83894 0.419259,2.514016 0.07984,5.0872 2.838939,8.058546 z"
           id="path4138-5-2-9"
           inkscape:connector-curvature="0"
           sodipodi:nodetypes="ccccccccccc" />
        <path
           style="fill:#ffffff;stroke:none;stroke-width:0.04161351"
           d="m 25.608718,53.607754 c -0.302598,0.227349 -1.706038,-0.216903 -2.399114,-0.488994 -0.09119,0.06741 -0.177522,0.141129 -0.258374,0.220634 -0.376297,0.377136 -0.617683,0.867867 -0.686744,1.39613 -0.841521,0.23636 -1.745107,7.46e-4 -2.375378,-0.627766 -0.628509,-0.630272 -0.864125,-1.533857 -0.627766,-2.375379 0.528263,-0.06906 1.018994,-0.310446 1.39613,-0.686743 0.07951,-0.08085 0.153232,-0.167188 0.220635,-0.258374 -0.272092,-0.693076 -0.716344,-2.096516 -0.488994,-2.399113 2.971345,-2.759105 5.544529,-2.419682 8.058545,-2.838941 -0.419259,2.514016 -0.07984,5.0872 -2.83894,8.058546 z"
           id="path4138-5-2-2-8"
           inkscape:connector-curvature="0"
           sodipodi:nodetypes="ccccccccccc" />
      </g>
    </g>
  </g>
</svg>
